<svg width="48" height="48" viewBox="0 0 48 48" fill="none" xmlns="http://www.w3.org/2000/svg">
<path d="M15.5 5C15.5 4.60218 15.342 4.22064 15.0606 3.93934C14.7793 3.65804 14.3978 3.5 14 3.5C13.6022 3.5 13.2206 3.65804 12.9393 3.93934C12.658 4.22064 12.5 4.60218 12.5 5V8.16C9.61999 8.39 7.73199 8.954 6.34399 10.344C4.95399 11.732 4.38999 13.622 4.15799 16.5H43.842C43.61 13.62 43.046 11.732 41.656 10.344C40.268 8.954 38.378 8.39 35.5 8.158V5C35.5 4.60218 35.342 4.22064 35.0606 3.93934C34.7793 3.65804 34.3978 3.5 34 3.5C33.6022 3.5 33.2206 3.65804 32.9393 3.93934C32.658 4.22064 32.5 4.60218 32.5 5V8.026C31.17 8 29.678 8 28 8H20C18.322 8 16.83 8 15.5 8.026V5Z" fill="#005C57"/>
<path fill-rule="evenodd" clip-rule="evenodd" d="M44 24V28C44 35.542 44 39.314 41.656 41.656C39.312 43.998 35.542 44 28 44H20C12.458 44 8.686 44 6.344 41.656C4.002 39.312 4 35.542 4 28V24C4 22.322 4 20.83 4.026 19.5H43.974C44 20.83 44 22.322 44 24ZM32 26.5C32.3978 26.5 32.7794 26.658 33.0607 26.9393C33.342 27.2206 33.5 27.6022 33.5 28V30.5H36C36.3978 30.5 36.7794 30.658 37.0607 30.9393C37.342 31.2206 37.5 31.6022 37.5 32C37.5 32.3978 37.342 32.7794 37.0607 33.0607C36.7794 33.342 36.3978 33.5 36 33.5H33.5V36C33.5 36.3978 33.342 36.7794 33.0607 37.0607C32.7794 37.342 32.3978 37.5 32 37.5C31.6022 37.5 31.2206 37.342 30.9393 37.0607C30.658 36.7794 30.5 36.3978 30.5 36V33.5H28C27.6022 33.5 27.2206 33.342 26.9393 33.0607C26.658 32.7794 26.5 32.3978 26.5 32C26.5 31.6022 26.658 31.2206 26.9393 30.9393C27.2206 30.658 27.6022 30.5 28 30.5H30.5V28C30.5 27.6022 30.658 27.2206 30.9393 26.9393C31.2206 26.658 31.6022 26.5 32 26.5Z" fill="#005C57"/>
</svg>
