<svg width="48" height="48" viewBox="0 0 48 48" fill="none" xmlns="http://www.w3.org/2000/svg">
<path fill-rule="evenodd" clip-rule="evenodd" d="M24 44C35.046 44 44 35.046 44 24C44 12.954 35.046 4 24 4C12.954 4 4 12.954 4 24C4 27.2 4.752 30.224 6.086 32.906C6.442 33.618 6.56 34.432 6.354 35.202L5.164 39.654C5.04614 40.0946 5.04625 40.5584 5.16431 40.9989C5.28237 41.4395 5.51424 41.8412 5.83663 42.1638C6.15902 42.4864 6.5606 42.7185 7.00105 42.8368C7.44151 42.9552 7.90534 42.9556 8.346 42.838L12.798 41.646C13.5708 41.4508 14.3883 41.5454 15.096 41.912C17.8619 43.2891 20.9102 44.004 24 44ZM16 26.5C15.6022 26.5 15.2206 26.658 14.9393 26.9393C14.658 27.2206 14.5 27.6022 14.5 28C14.5 28.3978 14.658 28.7794 14.9393 29.0607C15.2206 29.342 15.6022 29.5 16 29.5H27C27.3978 29.5 27.7794 29.342 28.0607 29.0607C28.342 28.7794 28.5 28.3978 28.5 28C28.5 27.6022 28.342 27.2206 28.0607 26.9393C27.7794 26.658 27.3978 26.5 27 26.5H16ZM14.5 21C14.5 20.6022 14.658 20.2206 14.9393 19.9393C15.2206 19.658 15.6022 19.5 16 19.5H32C32.3978 19.5 32.7794 19.658 33.0607 19.9393C33.342 20.2206 33.5 20.6022 33.5 21C33.5 21.3978 33.342 21.7794 33.0607 22.0607C32.7794 22.342 32.3978 22.5 32 22.5H16C15.6022 22.5 15.2206 22.342 14.9393 22.0607C14.658 21.7794 14.5 21.3978 14.5 21Z" fill="#4EA46A"/>
</svg>
