<svg width="48" height="48" viewBox="0 0 48 48" fill="none" xmlns="http://www.w3.org/2000/svg">
<path fill-rule="evenodd" clip-rule="evenodd" d="M6.928 6.928C4 9.86 4 14.572 4 24C4 33.428 4 38.142 6.928 41.07C9.86 44 14.572 44 24 44C33.428 44 38.142 44 41.07 41.07C44 38.144 44 33.428 44 24C44 14.572 44 9.858 41.07 6.928C38.144 4 33.428 4 24 4C14.572 4 9.858 4 6.928 6.928ZM21.088 15.034C21.2238 14.8913 21.3301 14.7232 21.401 14.5393C21.4718 14.3555 21.5057 14.1595 21.5008 13.9625C21.4959 13.7656 21.4522 13.5715 21.3723 13.3914C21.2924 13.2114 21.1777 13.0488 21.035 12.913C20.8923 12.7772 20.7242 12.6709 20.5403 12.6C20.3565 12.5292 20.1605 12.4953 19.9635 12.5002C19.7666 12.5051 19.5725 12.5488 19.3924 12.6287C19.2124 12.7086 19.0498 12.8233 18.914 12.966L14.286 17.826L13.086 16.566C12.9517 16.4176 12.789 16.2975 12.6076 16.2129C12.4261 16.1283 12.2296 16.0809 12.0296 16.0735C11.8295 16.066 11.63 16.0987 11.4428 16.1696C11.2556 16.2404 11.0844 16.3481 10.9394 16.4861C10.7944 16.6241 10.6786 16.7898 10.5986 16.9733C10.5186 17.1568 10.4762 17.3545 10.4739 17.5547C10.4715 17.7549 10.5092 17.9535 10.5848 18.1388C10.6604 18.3242 10.7723 18.4926 10.914 18.634L13.2 21.034C13.3401 21.181 13.5086 21.2981 13.6953 21.3781C13.8819 21.4581 14.0829 21.4993 14.286 21.4993C14.4891 21.4993 14.6901 21.4581 14.8767 21.3781C15.0634 21.2981 15.2319 21.181 15.372 21.034L21.088 15.034ZM26 16.5C25.6022 16.5 25.2206 16.658 24.9393 16.9393C24.658 17.2206 24.5 17.6022 24.5 18C24.5 18.3978 24.658 18.7794 24.9393 19.0607C25.2206 19.342 25.6022 19.5 26 19.5H36C36.3978 19.5 36.7794 19.342 37.0607 19.0607C37.342 18.7794 37.5 18.3978 37.5 18C37.5 17.6022 37.342 17.2206 37.0607 16.9393C36.7794 16.658 36.3978 16.5 36 16.5H26ZM21.086 29.034C21.2277 28.8926 21.3396 28.7242 21.4152 28.5388C21.4908 28.3535 21.5285 28.1549 21.5261 27.9547C21.5238 27.7545 21.4814 27.5568 21.4014 27.3733C21.3214 27.1898 21.2056 27.0241 21.0606 26.8861C20.9156 26.7481 20.7444 26.6404 20.5572 26.5696C20.37 26.4987 20.1705 26.466 19.9704 26.4735C19.7704 26.4809 19.5739 26.5283 19.3924 26.6129C19.211 26.6975 19.0483 26.8176 18.914 26.966L14.286 31.826L13.086 30.566C12.9517 30.4176 12.789 30.2975 12.6076 30.2129C12.4261 30.1283 12.2296 30.0809 12.0296 30.0735C11.8295 30.066 11.63 30.0987 11.4428 30.1696C11.2556 30.2404 11.0844 30.3481 10.9394 30.4861C10.7944 30.6241 10.6786 30.7898 10.5986 30.9733C10.5186 31.1568 10.4762 31.3545 10.4739 31.5547C10.4715 31.7549 10.5092 31.9535 10.5848 32.1388C10.6604 32.3242 10.7723 32.4926 10.914 32.634L13.2 35.034C13.3401 35.181 13.5086 35.2981 13.6953 35.3781C13.8819 35.4581 14.0829 35.4993 14.286 35.4993C14.4891 35.4993 14.6901 35.4581 14.8767 35.3781C15.0634 35.2981 15.2319 35.181 15.372 35.034L21.086 29.034ZM26 30.5C25.6022 30.5 25.2206 30.658 24.9393 30.9393C24.658 31.2206 24.5 31.6022 24.5 32C24.5 32.3978 24.658 32.7794 24.9393 33.0607C25.2206 33.342 25.6022 33.5 26 33.5H36C36.3978 33.5 36.7794 33.342 37.0607 33.0607C37.342 32.7794 37.5 32.3978 37.5 32C37.5 31.6022 37.342 31.2206 37.0607 30.9393C36.7794 30.658 36.3978 30.5 36 30.5H26Z" fill="#4EA46A"/>
</svg>
