<svg width="48" height="48" viewBox="0 0 48 48" fill="none" xmlns="http://www.w3.org/2000/svg">
<path fill-rule="evenodd" clip-rule="evenodd" d="M44 24C44 35.046 35.046 44 24 44C12.954 44 4 35.046 4 24C4 12.954 12.954 4 24 4C35.046 4 44 12.954 44 24ZM30 18C30 19.5913 29.3679 21.1174 28.2426 22.2426C27.1174 23.3679 25.5913 24 24 24C22.4087 24 20.8826 23.3679 19.7574 22.2426C18.6321 21.1174 18 19.5913 18 18C18 16.4087 18.6321 14.8826 19.7574 13.7574C20.8826 12.6321 22.4087 12 24 12C25.5913 12 27.1174 12.6321 28.2426 13.7574C29.3679 14.8826 30 16.4087 30 18ZM24 41C27.4326 41.0055 30.7856 39.9669 33.614 38.022C34.822 37.192 35.338 35.612 34.634 34.326C33.18 31.66 30.18 30 24 30C17.82 30 14.82 31.66 13.364 34.326C12.662 35.612 13.178 37.192 14.386 38.022C17.2144 39.9669 20.5674 41.0055 24 41Z" fill="#CFF5D4"/>
</svg>
