<svg width="48" height="48" viewBox="0 0 48 48" fill="none" xmlns="http://www.w3.org/2000/svg">
<path fill-rule="evenodd" clip-rule="evenodd" d="M25.504 7.95C25.504 8.34889 25.3455 8.73143 25.0635 9.01349C24.7814 9.29554 24.3989 9.454 24 9.454C23.6011 9.454 23.2186 9.29554 22.9365 9.01349C22.6545 8.73143 22.496 8.34889 22.496 7.95V4C18.2242 4.31519 14.1664 5.99355 10.92 8.788L14.032 11.894C14.1716 12.0336 14.2823 12.1993 14.3579 12.3817C14.4334 12.5641 14.4723 12.7596 14.4723 12.957C14.4723 13.1544 14.4334 13.3499 14.3579 13.5323C14.2823 13.7147 14.1716 13.8804 14.032 14.02C13.8924 14.1596 13.7267 14.2703 13.5443 14.3459C13.3619 14.4214 13.1664 14.4603 12.969 14.4603C12.7716 14.4603 12.5761 14.4214 12.3937 14.3459C12.2113 14.2703 12.0456 14.1596 11.906 14.02L8.794 10.912C5.99565 14.1503 4.31466 18.2037 4 22.472H7.956C8.1611 22.459 8.36667 22.4882 8.56005 22.5578C8.75342 22.6273 8.93049 22.7358 9.08032 22.8765C9.23015 23.0171 9.34957 23.187 9.4312 23.3756C9.51283 23.5642 9.55495 23.7675 9.55495 23.973C9.55495 24.1785 9.51283 24.3818 9.4312 24.5704C9.34957 24.759 9.23015 24.9289 9.08032 25.0695C8.93049 25.2102 8.75342 25.3187 8.56005 25.3882C8.36667 25.4578 8.1611 25.487 7.956 25.474H4C4.31466 29.7423 5.99565 33.7957 8.794 37.034L11.906 33.926C12.1884 33.6441 12.571 33.4858 12.97 33.4858C13.369 33.4858 13.7516 33.6441 14.034 33.926C14.1737 34.0653 14.2845 34.2309 14.3601 34.4131C14.4358 34.5953 14.4747 34.7907 14.4747 34.988C14.4747 35.1853 14.4358 35.3807 14.3601 35.5629C14.2845 35.7451 14.1737 35.9107 14.034 36.05L10.92 39.156C14.5575 42.288 19.2 44.0073 24 44C28.8 44.0073 33.4426 42.288 37.08 39.156L33.968 36.05C33.8283 35.9107 33.7175 35.7451 33.6419 35.5629C33.5662 35.3807 33.5273 35.1853 33.5273 34.988C33.5273 34.7907 33.5662 34.5953 33.6419 34.4131C33.7175 34.2309 33.8283 34.0653 33.968 33.926C34.2503 33.6447 34.6325 33.4868 35.031 33.4868C35.4295 33.4868 35.8117 33.6447 36.094 33.926L39.206 37.032C42.004 33.7943 43.6849 29.7416 44 25.474H40.044C39.8402 25.4845 39.6365 25.4535 39.4451 25.3827C39.2537 25.312 39.0787 25.2031 38.9308 25.0626C38.7828 24.922 38.665 24.7529 38.5845 24.5654C38.504 24.3779 38.4625 24.176 38.4625 23.972C38.4625 23.768 38.504 23.5661 38.5845 23.3786C38.665 23.1911 38.7828 23.022 38.9308 22.8814C39.0787 22.7409 39.2537 22.632 39.4451 22.5613C39.6365 22.4905 39.8402 22.4595 40.044 22.47H44C43.6849 18.2024 42.004 14.1497 39.206 10.912L36.094 14.02C35.8123 14.3022 35.4301 14.4609 35.0314 14.4613C34.6327 14.4617 34.2502 14.3037 33.968 14.022C33.6858 13.7403 33.5271 13.3581 33.5267 12.9594C33.5263 12.5607 33.6843 12.1782 33.966 11.896L37.078 8.788C33.8322 5.99394 29.7751 4.31561 25.504 4V7.95ZM27.622 20.264C28.1811 20.8214 28.6246 21.4836 28.9273 22.2127C29.2299 22.9419 29.3857 23.7236 29.3857 24.513C29.3857 25.3024 29.2299 26.0841 28.9273 26.8133C28.6246 27.5424 28.1811 28.2046 27.622 28.762C26.728 29.654 24.872 30.276 22.916 30.706C19.992 31.35 18.528 31.67 17.364 30.506C16.2 29.346 16.52 27.884 17.164 24.962C17.594 23.01 18.22 21.156 19.112 20.264C20.2408 19.1361 21.7713 18.5026 23.367 18.5026C24.9627 18.5026 26.4932 19.1361 27.622 20.264Z" fill="#4EA46A"/>
</svg>
