<svg width="48" height="50" viewBox="0 0 48 50" fill="none" xmlns="http://www.w3.org/2000/svg">
<path fill-rule="evenodd" clip-rule="evenodd" d="M22.6971 0.506473C22.4181 1.21715 22.4596 5.82737 22.7484 6.24007C24.4069 8.60872 26.5962 3.36311 25.0945 0.618812C24.6762 -0.144844 22.9838 -0.224119 22.6971 0.506473ZM11.3677 3.54277C10.567 4.52393 13.335 9.2445 14.7112 9.2445C16.2251 9.2445 16.3726 7.98688 15.1206 5.75725C13.4368 2.7592 12.4719 2.18994 11.3677 3.54277ZM34.1625 3.4145C31.4573 6.39105 30.9811 9.71098 33.3426 9.13136C34.5564 8.83339 36.957 4.52632 36.3831 3.67622C35.8068 2.82254 34.8077 2.70462 34.1625 3.4145ZM18.9353 9.55522C7.4047 13.7205 4.48112 26.7568 13.1875 35.1857L15.7881 37.7037L15.804 42.2219C15.828 49.2096 16.8662 50.1592 24.2843 49.9808C30.898 49.8214 31.6503 48.9952 31.7367 41.7957L31.7855 37.7416L34.5845 35.0455C41.0898 28.7793 41.2263 19.7875 34.914 13.3078C34.1027 12.4752 33.2506 11.794 33.0197 11.794C32.7891 11.794 32.6001 11.6737 32.6001 11.5271C32.6001 9.66636 22.6165 8.22549 18.9353 9.55522ZM3.20383 11.6594C2.74155 12.6517 3.06657 13.2719 4.43184 14.0037C4.96051 14.2869 5.78651 14.7765 6.26753 15.0916C7.63075 15.984 8.95365 15.6908 9.07544 14.4694C9.26361 12.58 3.95815 10.0408 3.20383 11.6594ZM40.6646 12.1665C38.4151 13.4683 37.9158 14.316 38.8562 15.2358C39.6961 16.0572 44.4024 14.034 44.8484 12.6592C45.4724 10.7368 43.5304 10.5081 40.6646 12.1665ZM27.8649 12.327C36.7277 15.3693 39.6309 26.4361 33.1532 32.484C32.401 33.1863 31.2402 34.2492 30.5738 34.8459C29.7653 35.5697 29.2277 36.4214 28.9585 37.4066C28.5695 38.8295 28.5109 38.8825 27.3334 38.8825H26.1119L26.0162 36.572C25.8809 33.3074 25.0167 33.2517 24.78 36.4923C24.6248 38.6168 24.5784 38.7231 23.8025 38.7231C23.0266 38.7231 22.9802 38.6168 22.825 36.4923C22.5884 33.2517 21.7241 33.3074 21.5888 36.572L21.4931 38.8825H20.0411C18.6396 38.8825 18.5891 38.8486 18.5891 37.9105C18.5891 36.4533 17.8287 35.2885 15.9771 33.9094C8.67669 28.4713 9.82324 17.0277 18.0661 13.0624C21.3966 11.4602 24.6322 11.2172 27.8649 12.327ZM22.9036 18.8848C21.5778 20.4994 19.8924 25.6255 19.8924 28.0435C19.8924 28.5861 19.6155 29.3206 19.277 29.676C18.5337 30.4564 18.2633 31.6503 18.2633 34.152C18.2633 36.4274 18.8587 36.8947 19.9792 35.4988C21.9676 33.0222 22.0234 32.986 23.8151 33.0007C25.6044 33.0158 25.7486 33.1134 27.5981 35.5645C28.6436 36.9504 29.0827 36.2744 29.0518 33.3273C29.0285 31.1288 28.6815 29.764 28.0331 29.3218C27.9044 29.2342 27.7113 28.3606 27.6038 27.3806C27.021 22.0597 24.3141 17.1671 22.9036 18.8848ZM0.214271 22.4959C-0.437406 24.1571 0.37597 24.8602 2.94887 24.8602C5.53154 24.8602 6.78154 23.6372 5.4904 22.3744C4.86724 21.7649 0.461093 21.8665 0.214271 22.4959ZM42.1329 22.6166C41.2621 23.981 42.4246 24.8602 45.1001 24.8602C47.4938 24.8602 48.7487 23.5727 47.5235 22.3744C46.8222 21.6885 42.6046 21.8781 42.1329 22.6166ZM23.3748 34.3081C23.062 34.6136 23.0934 37.8539 23.4107 38.0459C24.0901 38.4566 24.4872 37.632 24.3915 36.0091C24.2986 34.4328 23.9108 33.7839 23.3748 34.3081ZM28.6901 42.0964C28.6901 42.2602 26.4752 42.388 23.6396 42.388C18.1635 42.388 16.5278 41.8387 21.5412 41.6829C25.529 41.5591 28.6901 41.7419 28.6901 42.0964ZM28.6901 45.6849C28.6901 47.4532 21.5086 48.2396 19.6122 46.6788C17.9989 45.3514 18.2686 45.2562 23.6396 45.2562C27.6531 45.2562 28.6901 45.3443 28.6901 45.6849Z" fill="#CFF5D4"/>
</svg>
