<svg width="34" height="23" viewBox="0 0 34 23" fill="none" xmlns="http://www.w3.org/2000/svg">
<path fill-rule="evenodd" clip-rule="evenodd" d="M32 3.11111C31.3333 2.72222 30.5556 2.66667 29.8333 3L24.1111 5.61111V4.55556C24.1111 2.61111 22.5 1 20.5556 1H4.55556C2.61111 1 1 2.61111 1 4.55556V18.7778C1 20.7222 2.61111 22.3333 4.55556 22.3333H20.5556C22.5 22.3333 24.1111 20.7222 24.1111 18.7778V17.7222L29.8333 20.3333C30.1667 20.5 30.4444 20.5556 30.7778 20.5556C31.2222 20.5556 31.6111 20.4444 32 20.2222C32.6111 19.7778 33 19.1111 33 18.3333V5C33 4.22222 32.6111 3.55556 32 3.11111ZM21.4444 18.7778C21.4444 19.2778 21.0556 19.6667 20.5556 19.6667H4.55556C4.05556 19.6667 3.66667 19.2778 3.66667 18.7778V4.55556C3.66667 4.05556 4.05556 3.66667 4.55556 3.66667H20.5556C21.0556 3.66667 21.4444 4.05556 21.4444 4.55556V18.7778ZM24.1111 14.7778L30.3333 17.6667V5.66667L24.1111 8.55556V14.7778Z" fill="white"/>
<path d="M29.8333 3L30.0409 3.45488L30.0429 3.45398L29.8333 3ZM32 3.11111L32.2941 2.70674L32.2737 2.69192L32.2519 2.67922L32 3.11111ZM24.1111 5.61111H23.6111V6.38886L24.3187 6.06599L24.1111 5.61111ZM24.1111 17.7222L24.3187 17.2673L23.6111 16.9445V17.7222H24.1111ZM29.8333 20.3333L30.0569 19.8861L30.049 19.8821L30.0409 19.8785L29.8333 20.3333ZM32 20.2222L32.2481 20.6563L32.2719 20.6427L32.2941 20.6266L32 20.2222ZM30.3333 17.6667L30.1228 18.1202L30.8333 18.4501V17.6667H30.3333ZM24.1111 14.7778H23.6111V15.0969L23.9006 15.2313L24.1111 14.7778ZM30.3333 5.66667H30.8333V4.88326L30.1228 5.21316L30.3333 5.66667ZM24.1111 8.55556L23.9006 8.10205L23.6111 8.23644V8.55556H24.1111ZM29.8333 3L30.0429 3.45398C30.611 3.19177 31.2167 3.23303 31.7481 3.543L32 3.11111L32.2519 2.67922C31.45 2.21141 30.5001 2.14156 29.6238 2.54602L29.8333 3ZM24.1111 5.61111L24.3187 6.06599L30.0409 3.45488L29.8333 3L29.6258 2.54512L23.9035 5.15623L24.1111 5.61111ZM24.1111 4.55556H23.6111V5.61111H24.1111H24.6111V4.55556H24.1111ZM20.5556 1V1.5C22.2239 1.5 23.6111 2.88725 23.6111 4.55556H24.1111H24.6111C24.6111 2.33497 22.7761 0.5 20.5556 0.5V1ZM4.55556 1V1.5H20.5556V1V0.5H4.55556V1ZM1 4.55556H1.5C1.5 2.88725 2.88725 1.5 4.55556 1.5V1V0.5C2.33497 0.5 0.5 2.33497 0.5 4.55556H1ZM1 18.7778H1.5V4.55556H1H0.5V18.7778H1ZM4.55556 22.3333V21.8333C2.88725 21.8333 1.5 20.4461 1.5 18.7778H1H0.5C0.5 20.9984 2.33497 22.8333 4.55556 22.8333V22.3333ZM20.5556 22.3333V21.8333H4.55556V22.3333V22.8333H20.5556V22.3333ZM24.1111 18.7778H23.6111C23.6111 20.4461 22.2239 21.8333 20.5556 21.8333V22.3333V22.8333C22.7761 22.8333 24.6111 20.9984 24.6111 18.7778H24.1111ZM24.1111 17.7222H23.6111V18.7778H24.1111H24.6111V17.7222H24.1111ZM29.8333 20.3333L30.0409 19.8785L24.3187 17.2673L24.1111 17.7222L23.9035 18.1771L29.6258 20.7882L29.8333 20.3333ZM30.7778 20.5556V20.0556C30.5162 20.0556 30.3158 20.0156 30.0569 19.8861L29.8333 20.3333L29.6097 20.7805C30.0175 20.9844 30.3726 21.0556 30.7778 21.0556V20.5556ZM32 20.2222L31.7519 19.7881C31.4327 19.9705 31.1287 20.0556 30.7778 20.0556V20.5556V21.0556C31.3157 21.0556 31.7895 20.9184 32.2481 20.6563L32 20.2222ZM33 18.3333H32.5C32.5 18.9316 32.2043 19.4554 31.7059 19.8179L32 20.2222L32.2941 20.6266C33.0179 20.1002 33.5 19.2906 33.5 18.3333H33ZM33 5H32.5V18.3333H33H33.5V5H33ZM32 3.11111L31.7059 3.51548C32.2043 3.87795 32.5 4.40173 32.5 5H33H33.5C33.5 4.04272 33.0179 3.23316 32.2941 2.70674L32 3.11111ZM20.5556 19.6667V20.1667C21.3317 20.1667 21.9444 19.5539 21.9444 18.7778H21.4444H20.9444C20.9444 19.0016 20.7794 19.1667 20.5556 19.1667V19.6667ZM4.55556 19.6667V20.1667H20.5556V19.6667V19.1667H4.55556V19.6667ZM3.66667 18.7778H3.16667C3.16667 19.5539 3.77941 20.1667 4.55556 20.1667V19.6667V19.1667C4.3317 19.1667 4.16667 19.0016 4.16667 18.7778H3.66667ZM3.66667 4.55556H3.16667V18.7778H3.66667H4.16667V4.55556H3.66667ZM4.55556 3.66667V3.16667C3.77941 3.16667 3.16667 3.77941 3.16667 4.55556H3.66667H4.16667C4.16667 4.3317 4.3317 4.16667 4.55556 4.16667V3.66667ZM20.5556 3.66667V3.16667H4.55556V3.66667V4.16667H20.5556V3.66667ZM21.4444 4.55556H21.9444C21.9444 3.77941 21.3317 3.16667 20.5556 3.16667V3.66667V4.16667C20.7794 4.16667 20.9444 4.3317 20.9444 4.55556H21.4444ZM21.4444 18.7778H21.9444V4.55556H21.4444H20.9444V18.7778H21.4444ZM30.3333 17.6667L30.5439 17.2132L24.3217 14.3243L24.1111 14.7778L23.9006 15.2313L30.1228 18.1202L30.3333 17.6667ZM30.3333 5.66667H29.8333V17.6667H30.3333H30.8333V5.66667H30.3333ZM24.1111 8.55556L24.3217 9.00906L30.5439 6.12017L30.3333 5.66667L30.1228 5.21316L23.9006 8.10205L24.1111 8.55556ZM24.1111 14.7778H24.6111V8.55556H24.1111H23.6111V14.7778H24.1111Z" fill="white"/>
</svg>
